# xmcd
#
# Track frame offsets: 
#        150
#        6217
#        48707
#        54051
#        73977
#        77883
#        114745
#        122599
#        147619
#        181544
#        197578
#        237990
#        256294
#
# Disc length: 3674 seconds
#
# Revision: 0
# Processed by: cddbd v1.5.2PL0 Copyright (c) Steve Scherf et al.
# Submitted via: ExactAudioCopy v1.3
#
DISCID=b60e580d
DTITLE=Billy Branch, Lurrie Bell, Tail Dragger - My Head Is Bald - Liv
DTITLE=e at Vern's Friendly Lounge, Chicago
DYEAR=2005
DGENRE=Blues
TTITLE0=Billy Branch, Lurrie Bell, Tail - Intro
TTITLE1=Billy Branch, Lurrie Bell, Tail - Sitting Here Singing My Blue
TTITLE1=s
TTITLE2=Billy Branch, Lurrie Bell, Tail - Talk
TTITLE3=Billy Branch, Lurrie Bell, Tail - Tend To Your Business
TTITLE4=Billy Branch, Lurrie Bell, Tail - Talk
TTITLE5=Billy Branch, Lurrie Bell, Tail - Prison Blues
TTITLE6=Billy Branch, Lurrie Bell, Tail - Talk
TTITLE7=Billy Branch, Lurrie Bell, Tail - So Ezee
TTITLE8=Billy Branch, Lurrie Bell, Tail - My Woman Is Gone
TTITLE9=Billy Branch, Lurrie Bell, Tail - Talk
TTITLE10=Billy Branch, Lurrie Bell, Tail - My Head Is Bald
TTITLE11=Billy Branch, Lurrie Bell, Tail - You Gotta Go
TTITLE12=Billy Branch, Lurrie Bell, Tail - Jump For Joy
EXTD=
EXTT0=
EXTT1=
EXTT2=
EXTT3=
EXTT4=
EXTT5=
EXTT6=
EXTT7=
EXTT8=
EXTT9=
EXTT10=
EXTT11=
EXTT12=
PLAYORDER=
